<?xml version="1.0" standalone="no"?>
<!DOCTYPE svg PUBLIC "-//W3C//DTD SVG 20010904//EN"
 "http://www.w3.org/TR/2001/REC-SVG-20010904/DTD/svg10.dtd">
<svg version="1.0" xmlns="http://www.w3.org/2000/svg"
 width="1563.000000pt" height="1563.000000pt" viewBox="0 0 1563.000000 1563.000000"
 preserveAspectRatio="xMidYMid meet">
<metadata>
Created by potrace 1.14, written by Peter Selinger 2001-2017
</metadata>
<g transform="translate(0.000000,1563.000000) scale(0.100000,-0.100000)"
fill="#000000" stroke="none">
<path d="M0 7815 l0 -7815 7815 0 7815 0 0 7815 0 7815 -7815 0 -7815 0 0
-7815z m12730 0 l0 -5015 -4920 0 -4920 0 0 5015 0 5015 4920 0 4920 0 0
-5015z"/>
<path d="M3120 7815 l0 -4785 4690 0 4690 0 0 4785 0 4785 -4690 0 -4690 0 0
-4785z m4140 1990 l5 -1119 37 51 c270 376 713 606 1213 631 447 23 744 -54
998 -258 195 -156 337 -402 396 -685 55 -259 54 -234 58 -1842 l4 -1493 -760
0 -760 0 -3 1258 c-3 1253 -4 1257 -25 1334 -30 106 -66 173 -127 234 -93 92
-228 141 -360 130 -117 -9 -291 -105 -430 -236 -74 -69 -168 -194 -212 -282
l-34 -68 0 -1185 0 -1185 -760 0 -760 0 0 2920 0 2920 758 -2 757 -3 5 -1120z"/>
</g>
</svg>
